<?xml version="1.0" encoding="UTF-8" standalone="no"?>
<!-- Created with Inkscape (http://www.inkscape.org/) -->

<svg
   xmlns:dc="http://purl.org/dc/elements/1.1/"
   xmlns:cc="http://creativecommons.org/ns#"
   xmlns:rdf="http://www.w3.org/1999/02/22-rdf-syntax-ns#"
   xmlns:svg="http://www.w3.org/2000/svg"
   xmlns="http://www.w3.org/2000/svg"
   xmlns:sodipodi="http://sodipodi.sourceforge.net/DTD/sodipodi-0.dtd"
   xmlns:inkscape="http://www.inkscape.org/namespaces/inkscape"
   width="300"
   height="300"
   id="svg2"
   version="1.1"
   inkscape:version="0.48.4 r9939"
   sodipodi:docname="ballHolding-DropArm.svg"
   inkscape:export-filename="C:\Users\tpeet3\Downloads\ballHolding-DropArm.png"
   inkscape:export-xdpi="60"
   inkscape:export-ydpi="60">
  <defs
     id="defs4" />
  <sodipodi:namedview
     id="base"
     pagecolor="#ffffff"
     bordercolor="#666666"
     borderopacity="1.0"
     inkscape:pageopacity="0.0"
     inkscape:pageshadow="2"
     inkscape:zoom="0.9899495"
     inkscape:cx="-116.50415"
     inkscape:cy="91.171265"
     inkscape:document-units="px"
     inkscape:current-layer="layer1"
     showgrid="false"
     inkscape:window-width="1160"
     inkscape:window-height="1122"
     inkscape:window-x="0"
     inkscape:window-y="0"
     inkscape:window-maximized="0" />
  <metadata
     id="metadata7">
    <rdf:RDF>
      <cc:Work
         rdf:about="">
        <dc:format>image/svg+xml</dc:format>
        <dc:type
           rdf:resource="http://purl.org/dc/dcmitype/StillImage" />
        <dc:title></dc:title>
      </cc:Work>
    </rdf:RDF>
  </metadata>
  <g
     inkscape:label="Layer 1"
     inkscape:groupmode="layer"
     id="layer1"
     transform="translate(0,-752.36218)">
    <rect
       style="fill:#797979;fill-opacity:1;stroke:#000000;stroke-width:2;stroke-linejoin:round;stroke-miterlimit:4;stroke-opacity:1;stroke-dasharray:none"
       id="rect3784"
       width="4.9420576"
       height="95.483063"
       x="732.97131"
       y="451.24557"
       transform="matrix(0.70710678,0.70710678,-0.70710678,0.70710678,0,0)" />
    <rect
       y="837.29169"
       x="199.97824"
       height="60.702053"
       width="6.4237361"
       id="rect3764-1"
       style="fill:#797979;fill-opacity:1;stroke:#000000;stroke-width:2;stroke-linejoin:round;stroke-miterlimit:4;stroke-opacity:1;stroke-dasharray:none" />
    <rect
       style="fill:#e795a3;fill-opacity:1;stroke:#dc0024;stroke-width:1.33245432000000010;stroke-linejoin:round;stroke-miterlimit:4;stroke-opacity:1;stroke-dasharray:none"
       id="rect2985"
       width="147.81203"
       height="64.374962"
       x="59.517567"
       y="894.95197" />
    <path
       sodipodi:type="arc"
       style="fill:#797979;fill-opacity:1;stroke:#000000;stroke-width:2;stroke-linejoin:round;stroke-miterlimit:4;stroke-opacity:1;stroke-dasharray:none"
       id="path2985"
       sodipodi:cx="54.285713"
       sodipodi:cy="230"
       sodipodi:rx="22.857143"
       sodipodi:ry="22.857143"
       d="m 77.142857,230 c 0,12.62365 -10.233492,22.85714 -22.857144,22.85714 -12.623652,0 -22.857143,-10.23349 -22.857143,-22.85714 0,-12.62365 10.233491,-22.85714 22.857143,-22.85714 12.623652,0 22.857144,10.23349 22.857144,22.85714 z"
       transform="matrix(1.1842945,0,0,1.1842945,1.4593307,677.36144)" />
    <path
       transform="matrix(1.1842945,0,0,1.1842945,101.95517,677.36144)"
       d="m 77.142857,230 c 0,12.62365 -10.233492,22.85714 -22.857144,22.85714 -12.623652,0 -22.857143,-10.23349 -22.857143,-22.85714 0,-12.62365 10.233491,-22.85714 22.857143,-22.85714 12.623652,0 22.857144,10.23349 22.857144,22.85714 z"
       sodipodi:ry="22.857143"
       sodipodi:rx="22.857143"
       sodipodi:cy="230"
       sodipodi:cx="54.285713"
       id="path2987"
       style="fill:#797979;fill-opacity:1;stroke:#000000;stroke-width:2;stroke-linejoin:round;stroke-miterlimit:4;stroke-opacity:1;stroke-dasharray:none"
       sodipodi:type="arc" />
    <rect
       style="fill:#797979;fill-opacity:1;stroke:#000000;stroke-width:2.06410551;stroke-linejoin:round;stroke-miterlimit:4;stroke-opacity:1;stroke-dasharray:none"
       id="rect2990"
       width="55.025105"
       height="23.169403"
       x="206.38474"
       y="837.02917" />
    <path
       transform="matrix(1.2065643,0,0,0.3779236,168.42646,773.43713)"
       d="m 77.142857,230 c 0,12.62365 -10.233492,22.85714 -22.857144,22.85714 -12.623652,0 -22.857143,-10.23349 -22.857143,-22.85714 0,-12.62365 10.233491,-22.85714 22.857143,-22.85714 12.623652,0 22.857144,10.23349 22.857144,22.85714 z"
       sodipodi:ry="22.857143"
       sodipodi:rx="22.857143"
       sodipodi:cy="230"
       sodipodi:cx="54.285713"
       id="path3760"
       style="fill:#797979;fill-opacity:1;stroke:#000000;stroke-width:2.96177959;stroke-linejoin:round;stroke-miterlimit:4;stroke-opacity:1;stroke-dasharray:none"
       sodipodi:type="arc" />
    <rect
       y="839.68079"
       x="207.39488"
       height="20.391483"
       width="53.064762"
       id="rect3764"
       style="fill:#797979;fill-opacity:1;stroke:none" />
    <path
       sodipodi:type="arc"
       style="fill:#797979;fill-opacity:1;stroke:#000000;stroke-width:2.96177959;stroke-linejoin:round;stroke-miterlimit:4;stroke-opacity:1;stroke-dasharray:none"
       id="path2988"
       sodipodi:cx="54.285713"
       sodipodi:cy="230"
       sodipodi:rx="22.857143"
       sodipodi:ry="22.857143"
       d="m 77.142857,230 c 0,12.62365 -10.233492,22.85714 -22.857144,22.85714 -12.623652,0 -22.857143,-10.23349 -22.857143,-22.85714 0,-12.62365 10.233491,-22.85714 22.857143,-22.85714 12.623652,0 22.857144,10.23349 22.857144,22.85714 z"
       transform="matrix(1.2065643,0,0,0.3779236,168.42646,749.43713)" />
  </g>
</svg>
