<?xml version="1.0" encoding="UTF-8" standalone="no"?>
<!-- Created with Inkscape (http://www.inkscape.org/) -->

<svg
   xmlns:dc="http://purl.org/dc/elements/1.1/"
   xmlns:cc="http://creativecommons.org/ns#"
   xmlns:rdf="http://www.w3.org/1999/02/22-rdf-syntax-ns#"
   xmlns:svg="http://www.w3.org/2000/svg"
   xmlns="http://www.w3.org/2000/svg"
   xmlns:sodipodi="http://sodipodi.sourceforge.net/DTD/sodipodi-0.dtd"
   xmlns:inkscape="http://www.inkscape.org/namespaces/inkscape"
   width="300"
   height="300"
   id="svg2"
   version="1.1"
   inkscape:version="0.48.4 r9939"
   sodipodi:docname="tankTreads.svg"
   inkscape:export-filename="C:\Users\tpeet3\Downloads\morphChartImg\tankTreads.png"
   inkscape:export-xdpi="60"
   inkscape:export-ydpi="60">
  <defs
     id="defs4" />
  <sodipodi:namedview
     id="base"
     pagecolor="#ffffff"
     bordercolor="#666666"
     borderopacity="1.0"
     inkscape:pageopacity="0.0"
     inkscape:pageshadow="2"
     inkscape:zoom="1"
     inkscape:cx="207.34712"
     inkscape:cy="152.95107"
     inkscape:document-units="px"
     inkscape:current-layer="layer1"
     showgrid="false"
     inkscape:window-width="1920"
     inkscape:window-height="1138"
     inkscape:window-x="-8"
     inkscape:window-y="-8"
     inkscape:window-maximized="1" />
  <metadata
     id="metadata7">
    <rdf:RDF>
      <cc:Work
         rdf:about="">
        <dc:format>image/svg+xml</dc:format>
        <dc:type
           rdf:resource="http://purl.org/dc/dcmitype/StillImage" />
        <dc:title></dc:title>
      </cc:Work>
    </rdf:RDF>
  </metadata>
  <g
     inkscape:label="Layer 1"
     inkscape:groupmode="layer"
     id="layer1"
     transform="translate(0,-752.36218)">
    <rect
       style="fill:#e79b95;fill-opacity:1;stroke:#dc0e00;stroke-width:2.41936898;stroke-linejoin:round;stroke-miterlimit:4;stroke-opacity:1;stroke-dasharray:none"
       id="rect2985"
       width="55.589645"
       height="216.72581"
       x="-905.81323"
       y="41.636642"
       transform="matrix(0,-1,1,0,0,0)" />
    <path
       style="fill:#797979;fill-opacity:1;stroke:#000000;stroke-width:4.45767069;stroke-linecap:butt;stroke-linejoin:round;stroke-miterlimit:4;stroke-opacity:1;stroke-dasharray:none"
       d="m 37.848786,914.75749 224.301524,0 c 0,0 19.18267,-1.53926 19.33634,19.33633 0.15367,20.87559 -19.33634,19.33634 -19.33634,19.33634 l -224.301524,0 c 0,0 -19.336339,2.02525 -19.336339,-19.33634 0,-21.36159 19.336339,-19.33633 19.336339,-19.33633 z"
       id="path4286"
       inkscape:connector-curvature="0"
       sodipodi:nodetypes="cczcczc" />
    <path
       sodipodi:type="star"
       style="fill:#797979;fill-opacity:1;stroke:#000000;stroke-width:6.25756264;stroke-linejoin:round;stroke-miterlimit:4;stroke-opacity:1;stroke-dasharray:none"
       id="path4290"
       sodipodi:sides="10"
       sodipodi:cx="70.75"
       sodipodi:cy="53.25"
       sodipodi:r1="30.254131"
       sodipodi:r2="24.808388"
       sodipodi:arg1="1.5542689"
       sodipodi:arg2="1.8684282"
       inkscape:flatsided="false"
       inkscape:rounded="0.08"
       inkscape:randomized="0"
       d="m 71.25,83.499999 c -0.812296,0.01343 -6.998545,-6.294102 -7.775234,-6.532346 -0.776688,-0.238244 -9.435708,1.515597 -10.100761,1.049003 -0.665053,-0.466593 -1.962362,-9.205677 -2.45068,-9.854947 -0.488317,-0.649269 -8.524493,-4.320026 -8.788275,-5.088417 -0.263783,-0.76839 3.823377,-8.600997 3.80995,-9.413293 -0.01343,-0.812296 -4.357212,-8.505546 -4.118968,-9.282234 0.238245,-0.776689 8.148717,-4.711028 8.61531,-5.376082 0.466594,-0.665053 1.474376,-9.442236 2.123646,-9.930554 0.649269,-0.488318 9.361523,0.978394 10.129913,0.714611 0.76839,-0.263782 6.742803,-6.772313 7.555099,-6.785739 0.812296,-0.01343 6.998545,6.294102 7.775234,6.532346 0.776688,0.238244 9.435708,-1.515597 10.100761,-1.049003 0.665053,0.466593 1.962362,9.205677 2.45068,9.854947 0.488317,0.649269 8.524493,4.320026 8.788275,5.088417 0.263783,0.76839 -3.823377,8.600997 -3.80995,9.413293 0.01343,0.812296 4.357212,8.505546 4.118968,9.282234 -0.238245,0.776689 -8.148717,4.711028 -8.61531,5.376082 -0.466594,0.665053 -1.474376,9.442236 -2.123646,9.930554 -0.649269,0.488318 -9.361523,-0.978394 -10.129913,-0.714611 -0.76839,0.263782 -6.742803,6.772313 -7.555099,6.785739 z"
       transform="matrix(0.5021067,0,0,0.5021067,1.5609522,907.27797)" />
    <path
       transform="matrix(0.5021067,0,0,0.5021067,227.15142,907.27797)"
       d="m 71.25,83.499999 c -0.812296,0.01343 -6.998545,-6.294102 -7.775234,-6.532346 -0.776688,-0.238244 -9.435708,1.515597 -10.100761,1.049003 -0.665053,-0.466593 -1.962362,-9.205677 -2.45068,-9.854947 -0.488317,-0.649269 -8.524493,-4.320026 -8.788275,-5.088417 -0.263783,-0.76839 3.823377,-8.600997 3.80995,-9.413293 -0.01343,-0.812296 -4.357212,-8.505546 -4.118968,-9.282234 0.238245,-0.776689 8.148717,-4.711028 8.61531,-5.376082 0.466594,-0.665053 1.474376,-9.442236 2.123646,-9.930554 0.649269,-0.488318 9.361523,0.978394 10.129913,0.714611 0.76839,-0.263782 6.742803,-6.772313 7.555099,-6.785739 0.812296,-0.01343 6.998545,6.294102 7.775234,6.532346 0.776688,0.238244 9.435708,-1.515597 10.100761,-1.049003 0.665053,0.466593 1.962362,9.205677 2.45068,9.854947 0.488317,0.649269 8.524493,4.320026 8.788275,5.088417 0.263783,0.76839 -3.823377,8.600997 -3.80995,9.413293 0.01343,0.812296 4.357212,8.505546 4.118968,9.282234 -0.238245,0.776689 -8.148717,4.711028 -8.61531,5.376082 -0.466594,0.665053 -1.474376,9.442236 -2.123646,9.930554 -0.649269,0.488318 -9.361523,-0.978394 -10.129913,-0.714611 -0.76839,0.263782 -6.742803,6.772313 -7.555099,6.785739 z"
       inkscape:randomized="0"
       inkscape:rounded="0.08"
       inkscape:flatsided="false"
       sodipodi:arg2="1.8684282"
       sodipodi:arg1="1.5542689"
       sodipodi:r2="24.808388"
       sodipodi:r1="30.254131"
       sodipodi:cy="53.25"
       sodipodi:cx="70.75"
       sodipodi:sides="10"
       id="path4292"
       style="fill:#797979;fill-opacity:1;stroke:#000000;stroke-width:6.25756264;stroke-linejoin:round;stroke-miterlimit:4;stroke-opacity:1;stroke-dasharray:none"
       sodipodi:type="star" />
  </g>
</svg>
