<?xml version="1.0" encoding="utf-8"?>
<!-- Generator: Adobe Illustrator 16.0.0, SVG Export Plug-In . SVG Version: 6.00 Build 0)  -->
<!DOCTYPE svg PUBLIC "-//W3C//DTD SVG 1.1//EN" "http://www.w3.org/Graphics/SVG/1.1/DTD/svg11.dtd">
<svg version="1.1" id="Layer_1" xmlns="http://www.w3.org/2000/svg" xmlns:xlink="http://www.w3.org/1999/xlink" x="0px" y="0px"
	 width="200px" height="67.428px" viewBox="0 0 200 67.428" enable-background="new 0 0 200 67.428" xml:space="preserve">
<g>
	<path fill="#FFFFFF" stroke="#414042" stroke-miterlimit="10" d="M49.831,61.529c-2.749,1.374-8.247,2.749-15.292,2.749
		c-16.322,0-28.607-10.309-28.607-29.294c0-18.126,12.285-30.411,30.239-30.411c7.216,0,11.769,1.546,13.745,2.577l-1.804,6.1
		c-2.835-1.375-6.873-2.406-11.683-2.406c-13.574,0-22.594,8.677-22.594,23.882c0,14.175,8.161,23.28,22.25,23.28
		c4.553,0,9.192-0.944,12.199-2.404L49.831,61.529z"/>
	<path fill="#FFFFFF" stroke="#414042" stroke-miterlimit="10" d="M58.937,2.425h7.56v60.994h-7.56V2.425z"/>
	<path fill="#FFFFFF" stroke="#414042" stroke-miterlimit="10" d="M116.838,42.286c0,15.377-10.652,22.078-20.704,22.078
		c-11.254,0-19.93-8.247-19.93-21.391c0-13.917,9.106-22.078,20.618-22.078C108.762,20.895,116.838,29.572,116.838,42.286z
		 M83.85,42.715c0,9.105,5.24,15.979,12.628,15.979c7.216,0,12.627-6.787,12.627-16.15c0-7.044-3.521-15.979-12.456-15.979
		C87.715,26.565,83.85,34.812,83.85,42.715z"/>
	<path fill="#FFFFFF" stroke="#414042" stroke-miterlimit="10" d="M125.344,55.688c2.232,1.46,6.186,3.006,9.965,3.006
		c5.498,0,8.074-2.749,8.074-6.186c0-3.607-2.146-5.584-7.73-7.646c-7.475-2.663-10.996-6.787-10.996-11.769
		c0-6.701,5.412-12.199,14.346-12.199c4.209,0,7.904,1.203,10.223,2.577l-1.889,5.498c-1.633-1.031-4.639-2.405-8.506-2.405
		c-4.467,0-6.959,2.577-6.959,5.67c0,3.436,2.492,4.982,7.904,7.045c7.217,2.748,10.91,6.356,10.91,12.541
		c0,7.303-5.67,12.457-15.549,12.457c-4.553,0-8.764-1.117-11.684-2.835L125.344,55.688z"/>
	<path fill="#FFFFFF" stroke="#414042" stroke-miterlimit="10" d="M164.604,44.004c0.172,10.223,6.701,14.432,14.26,14.432
		c5.412,0,8.678-0.945,11.512-2.147l1.289,5.412c-2.664,1.202-7.217,2.577-13.832,2.577c-12.799,0-20.445-8.419-20.445-20.961
		c0-12.542,7.389-22.422,19.502-22.422c13.572,0,17.18,11.941,17.18,19.587c0,1.546-0.17,2.749-0.256,3.522H164.604z
		 M186.768,38.592c0.086-4.811-1.977-12.285-10.48-12.285c-7.646,0-10.996,7.044-11.598,12.285H186.768z"/>
</g>
</svg>
