<?xml version="1.0" encoding="utf-8"?>
<!-- Generator: Adobe Illustrator 16.2.1, SVG Export Plug-In . SVG Version: 6.00 Build 0)  -->
<!DOCTYPE svg PUBLIC "-//W3C//DTD SVG 1.1//EN" "http://www.w3.org/Graphics/SVG/1.1/DTD/svg11.dtd">
<svg version="1.1" id="Layer_1" xmlns="http://www.w3.org/2000/svg" xmlns:xlink="http://www.w3.org/1999/xlink" x="0px" y="0px"
	 width="229px" height="67.428px" viewBox="-17 0 229 67.428" enable-background="new -17 0 229 67.428" xml:space="preserve">
<g>
	<path fill="#FFFFFF" stroke="#000000" stroke-width="2" stroke-miterlimit="10" d="M74.748,30.625
		c-0.157-1.191-0.558-2.266-1.204-3.223c-0.94-1.289-2.398-1.934-4.375-1.934c-2.82,0-4.749,1.396-5.786,4.189
		c-0.548,1.481-0.822,3.448-0.822,5.903c0,2.338,0.274,4.218,0.822,5.64c0.998,2.656,2.878,3.984,5.639,3.984
		c1.958,0,3.348-0.527,4.17-1.582c0.822-1.055,1.322-2.422,1.498-4.102h8.525c-0.196,2.539-1.115,4.941-2.757,7.207
		c-2.62,3.652-6.5,5.479-11.642,5.479c-5.142,0-8.925-1.523-11.349-4.57c-2.425-3.047-3.637-6.997-3.637-11.852
		c0-5.478,1.339-9.74,4.018-12.787c2.678-3.047,6.373-4.57,11.085-4.57c4.008,0,7.287,0.898,9.839,2.695
		c2.551,1.797,4.061,4.971,4.531,9.521H74.748z"/>
	<path fill="#FFFFFF" stroke="#000000" stroke-width="2" stroke-miterlimit="10" d="M97.541,51.104h-8.35V7.92h8.35V51.104z"/>
	<path fill="#FFFFFF" stroke="#000000" stroke-width="2" stroke-miterlimit="10" d="M132.316,47.197
		c-2.695,3.327-6.787,4.99-12.275,4.99s-9.58-1.663-12.275-4.99s-4.043-7.333-4.043-12.017c0-4.605,1.348-8.596,4.043-11.972
		s6.787-5.064,12.275-5.064s9.58,1.688,12.275,5.064s4.043,7.367,4.043,11.972C136.359,39.864,135.012,43.87,132.316,47.197z
		 M125.637,42.582c1.309-1.735,1.963-4.202,1.963-7.401c0-3.198-0.654-5.661-1.963-7.387c-1.309-1.726-3.184-2.589-5.625-2.589
		s-4.321,0.863-5.64,2.589c-1.318,1.726-1.978,4.188-1.978,7.387c0,3.199,0.659,5.666,1.978,7.401
		c1.318,1.736,3.198,2.604,5.64,2.604S124.328,44.318,125.637,42.582z"/>
	<path fill="#FFFFFF" stroke="#000000" stroke-width="2" stroke-miterlimit="10" d="M148.811,40.908
		c0.177,1.484,0.56,2.539,1.148,3.164c1.039,1.113,2.963,1.67,5.77,1.67c1.648,0,2.958-0.244,3.93-0.732s1.457-1.221,1.457-2.197
		c0-0.938-0.392-1.65-1.174-2.139c-0.782-0.487-3.694-1.328-8.734-2.52c-3.629-0.897-6.186-2.021-7.67-3.369
		c-1.484-1.328-2.227-3.242-2.227-5.742c0-2.949,1.16-5.483,3.479-7.603c2.32-2.119,5.584-3.179,9.792-3.179
		c3.993,0,7.247,0.796,9.762,2.388c2.515,1.592,3.959,4.341,4.331,8.247h-8.35c-0.117-1.074-0.421-1.923-0.91-2.549
		c-0.921-1.132-2.488-1.699-4.701-1.699c-1.821,0-3.119,0.283-3.893,0.85c-0.773,0.567-1.16,1.23-1.16,1.992
		c0,0.957,0.411,1.651,1.234,2.08c0.822,0.45,3.728,1.221,8.718,2.314c3.326,0.781,5.819,1.963,7.479,3.545
		c1.641,1.602,2.461,3.604,2.461,6.006c0,3.164-1.18,5.747-3.537,7.749c-2.359,2.002-6.004,3.003-10.936,3.003
		c-5.029,0-8.742-1.06-11.141-3.179c-2.397-2.119-3.596-4.819-3.596-8.101H148.811z"/>
	<path fill="#FFFFFF" stroke="#000000" stroke-width="2" stroke-miterlimit="10" d="M196.514,19.817
		c2.228,0.998,4.067,2.572,5.519,4.724c1.308,1.897,2.156,4.098,2.545,6.602c0.225,1.467,0.315,3.58,0.274,6.338h-23.258
		c0.13,3.204,1.243,5.449,3.34,6.738c1.274,0.801,2.81,1.201,4.604,1.201c1.901,0,3.447-0.488,4.636-1.465
		c0.648-0.527,1.222-1.26,1.719-2.197h8.524c-0.225,1.895-1.257,3.818-3.096,5.771c-2.86,3.105-6.865,4.658-12.014,4.658
		c-4.25,0-7.999-1.31-11.248-3.929s-4.873-6.882-4.873-12.785c0-5.532,1.466-9.774,4.399-12.726
		c2.933-2.952,6.739-4.428,11.419-4.428C191.783,18.32,194.287,18.819,196.514,19.817z M184.023,27.03
		c-1.181,1.216-1.922,2.864-2.225,4.943h14.385c-0.152-2.216-0.894-3.898-2.225-5.046s-2.981-1.722-4.952-1.722
		C186.864,25.205,185.203,25.813,184.023,27.03z"/>
</g>
<line fill="#FFFFFF" stroke="#FFFFFF" stroke-width="8" stroke-miterlimit="10" x1="-0.324" y1="15.14" x2="34.324" y2="49.788"/>
<line fill="#FFFFFF" stroke="#FFFFFF" stroke-width="8" stroke-miterlimit="10" x1="-0.324" y1="49.788" x2="34.324" y2="15.14"/>
<rect x="-8.787" y="6.677" fill="none" stroke="#FFFFFF" stroke-width="8" stroke-miterlimit="10" width="51.574" height="51.574"/>
</svg>
