<?xml version="1.0" encoding="utf-8"?>
<!-- Generator: Adobe Illustrator 16.0.0, SVG Export Plug-In . SVG Version: 6.00 Build 0)  -->
<!DOCTYPE svg PUBLIC "-//W3C//DTD SVG 1.1//EN" "http://www.w3.org/Graphics/SVG/1.1/DTD/svg11.dtd">
<svg version="1.1" id="Layer_1" xmlns="http://www.w3.org/2000/svg" xmlns:xlink="http://www.w3.org/1999/xlink" x="0px" y="0px"
	 width="200px" height="200px" viewBox="0 0 200 200" enable-background="new 0 0 200 200" xml:space="preserve">
<path opacity="0.6" fill="#6D6E71" stroke="#000000" stroke-miterlimit="10" enable-background="new    " d="M184.053,42.571
	l-21.814-21.815l-17.637,17.635c-12.742-8.575-28.088-13.583-44.603-13.583c-44.183,0-80,35.817-80,80
	c0,16.516,5.007,31.858,13.583,44.604l-17.635,17.635l21.815,21.814l17.635-17.635c12.744,8.574,28.087,13.582,44.602,13.582
	c44.183,0,80-35.817,80-80c0-16.516-5.007-31.859-13.582-44.604L184.053,42.571z M99.999,49.809c9.579,0,18.583,2.454,26.427,6.759
	l-74.667,74.667c-4.306-7.844-6.759-16.848-6.759-26.426C45,74.433,69.624,49.809,99.999,49.809z M99.999,159.809
	c-9.579,0-18.583-2.453-26.425-6.759l74.667-74.667C152.547,86.226,155,95.23,155,104.809
	C155,135.184,130.375,159.809,99.999,159.809z"/>
</svg>
