<?xml version="1.0" encoding="utf-8"?>
<!-- Generator: Adobe Illustrator 16.2.1, SVG Export Plug-In . SVG Version: 6.00 Build 0)  -->
<!DOCTYPE svg PUBLIC "-//W3C//DTD SVG 1.1//EN" "http://www.w3.org/Graphics/SVG/1.1/DTD/svg11.dtd">
<svg version="1.1" id="Layer_1" xmlns="http://www.w3.org/2000/svg" xmlns:xlink="http://www.w3.org/1999/xlink" x="0px" y="0px"
	 width="53.5px" height="245.942px" viewBox="0 0 53.5 245.942" enable-background="new 0 0 53.5 245.942" xml:space="preserve">
<rect x="11.055" y="-47.953" fill="none" width="55.652" height="221.092"/>
<text transform="matrix(-4.371139e-08 -1 1 -4.371139e-08 38.7383 173.1387)" fill="#ED1C24" font-family="'Helvetica-Bold'" font-size="38.5019">scroll</text>
<text transform="matrix(-4.371139e-08 -1 1 -4.371139e-08 38.7383 173.1387)" fill="none" stroke="#ED1C24" font-family="'Helvetica-Bold'" font-size="38.5019">scroll</text>
<g>
	<line fill="none" x1="26.323" y1="62.594" x2="26.323" y2="6.185"/>
	<g>
		<line fill="none" stroke="#ED1C24" stroke-width="9" stroke-miterlimit="10" x1="26.323" y1="62.594" x2="26.323" y2="10.36"/>
		<g>
			<polygon fill="#ED1C24" points="42.07,23.118 39.25,25.744 26.327,11.838 13.401,25.744 10.581,23.118 26.327,6.185 			"/>
		</g>
	</g>
</g>
<g>
	<line fill="none" x1="26.323" y1="183.74" x2="26.323" y2="237.877"/>
	<g>
		<line fill="none" stroke="#ED1C24" stroke-width="9" stroke-miterlimit="10" x1="26.323" y1="183.74" x2="26.323" y2="233.701"/>
		<g>
			<polygon fill="#ED1C24" points="10.577,220.944 13.397,218.318 26.32,232.225 39.246,218.318 42.067,220.944 26.32,237.877 			
				"/>
		</g>
	</g>
</g>
</svg>
